<?xml version="1.0" encoding="utf-8"?>
<!-- Generator: Adobe Illustrator 23.0.3, SVG Export Plug-In . SVG Version: 6.00 Build 0)  -->
<svg version="1.1" id="Layer_1" xmlns="http://www.w3.org/2000/svg" xmlns:xlink="http://www.w3.org/1999/xlink" x="0px" y="0px"
	 viewBox="0 0 679.1 159.5" style="enable-background:new 0 0 679.1 159.5;" xml:space="preserve">
<style type="text/css">
	.st0{fill:#FFFFFF;}
	.st1{fill:#243F9C;}
	.st2{fill:#FCEC00;}
	.st3{clip-path:url(#SVGID_2_);}
	.st4{fill:url(#Rectangle_74_1_);}
	.st5{fill:#FFCB2B;}
	.st6{clip-path:url(#SVGID_4_);}
	.st7{fill:url(#Rectangle_75_1_);}
	.st8{clip-path:url(#SVGID_6_);}
	.st9{fill:url(#Rectangle_76_1_);}
	.st10{clip-path:url(#SVGID_8_);}
	.st11{fill:url(#Rectangle_77_1_);}
	.st12{clip-path:url(#SVGID_10_);}
	.st13{fill:url(#Rectangle_78_1_);}
	.st14{clip-path:url(#SVGID_12_);}
	.st15{fill:url(#Rectangle_79_1_);}
	.st16{clip-path:url(#SVGID_14_);}
	.st17{fill:url(#Rectangle_80_1_);}
	.st18{clip-path:url(#SVGID_16_);}
	.st19{fill:url(#Rectangle_81_1_);}
	.st20{clip-path:url(#SVGID_18_);}
	.st21{fill:url(#Rectangle_82_1_);}
	.st22{clip-path:url(#SVGID_20_);}
	.st23{fill:url(#Rectangle_83_1_);}
	.st24{fill:#28639A;}
</style>
<g id="Layer_2">
</g>
<g id="Layer_1">
	<g id="g4154">
		<path id="rect4122" class="st0" d="M0,0h233v158H0V0z"/>
		<g id="g4152">
			<path id="rect4124" class="st1" d="M4.5,4H229v149.7H4.5V4z"/>
			<path id="polygon4148" class="st2" d="M176.7,76.7l-4.3,3.2l1.2,6.3l-4.9-3.6l-4.9,3.5l1.2-6.2l-4.2-3.2h6l1.9-5.8l2,5.8H176.7z
				 M64.9,79.9l-4.2-3.2h5.9l2-5.8l1.9,5.8h6l-4.2,3.2l1.2,6.3l-4.9-3.6l-4.9,3.5L64.9,79.9z M170.3,102.1l-4.3,3.3l1.2,6.2
				l-4.9-3.5l-4.9,3.4l1.2-6.1l-4.2-3.3h6l1.9-5.8l2,5.9L170.3,102.1z M70.7,105.4l-4.2-3.3h6l1.9-5.8l2,5.9l5.9-0.1l-4.2,3.3
				l1.2,6.2l-4.9-3.5l-4.9,3.4L70.7,105.4z M170.3,51.6l-4.3,3.2l1.2,6.3l-4.9-3.6l-4.9,3.5l1.2-6.2l-4.2-3.2h6l1.9-5.8l2,5.8H170.3
				z M70.7,54.8l-4.2-3.2h6l1.9-5.8l2,5.8h5.9l-4.2,3.2l1.2,6.3l-4.9-3.6L69.5,61L70.7,54.8z M101,120.4l-4.2,3.2l1.1,6.3l-4.8-3.6
				l-4.9,3.5l1.1-6.2l-4.2-3.2h6l2-5.8l1.9,5.8L101,120.4z M139.3,123.6l-4.2-3.2h6l1.9-5.8l2,5.8h6l-4.3,3.2l1.2,6.3l-4.9-3.6
				l-4.9,3.5L139.3,123.6z M101,32.5l-4.2,3.2l1.1,6.3l-4.8-3.6l-4.9,3.5l1.1-6.2l-4.2-3.2h6l2-5.8l1.9,5.8H101z M139.3,35.7
				l-4.2-3.2h6l1.9-5.8l2,5.8h6l-4.3,3.2l1.2,6.3l-4.9-3.6l-4.9,3.5L139.3,35.7z M126.6,26l-4.3,3.2l1.2,6.3l-4.9-3.6l-4.9,3.5
				l1.2-6.2l-4.2-3.2h6l1.9-5.8l2,5.8H126.6z M114.9,130.5l-4.2-3.3h6l1.9-5.8l2,5.8h6l-4.3,3.3l1.2,6.2l-4.9-3.5l-4.9,3.4
				L114.9,130.5z"/>
		</g>
	</g>
</g>
<g id="Layer_3">
	<g>
		<defs>
			<path id="SVGID_1_" d="M249,76.8c0,40.9,32.8,74,73.3,74c11.2,0,22.3-2.6,32.4-7.7c0,0,0.2-0.1,0.1-0.3c0-0.1-0.1-0.1-0.2-0.1
				c0,0,0,0,0,0c-7.7,3.1-15.9,4.7-24.2,4.6c-36.8,0-66.7-30.3-66.7-67.6s29.9-67.6,66.7-67.6c25.4,0,48.6,14.5,59.7,37.3
				c0,0,0.1,0.2,0.3,0.1c0.1,0,0.1-0.1,0.1-0.2c0,0,0,0,0,0c-11-28.1-38-46.5-68.1-46.6C281.8,2.8,249,36,249,76.8"/>
		</defs>
		<clipPath id="SVGID_2_">
			<use xlink:href="#SVGID_1_"  style="overflow:visible;"/>
		</clipPath>
		<g id="Group_438" class="st3">
			
				<linearGradient id="Rectangle_74_1_" gradientUnits="userSpaceOnUse" x1="-169.7381" y1="463.0532" x2="-169.7343" y2="463.0532" gradientTransform="matrix(186.5 0 0 -195.09 31906 90413.8516)">
				<stop  offset="0" style="stop-color:#236797"/>
				<stop  offset="1" style="stop-color:#6AAADC"/>
			</linearGradient>
			<rect id="Rectangle_74" x="249" y="2.8" class="st4" width="141.5" height="148"/>
		</g>
	</g>
	<path id="Path_353" class="st5" d="M529.9,91.2c-1.3-3.3-3.9-5.9-7.1-7.4c-1.6-0.7-3.3-1.1-5.1-1.1c-1.8,0-3.6,0.4-5.2,1.2
		c-1.6,0.7-3,1.8-4.2,3c-0.6,0.7-1.2,1.4-1.7,2.1v0.3c0,9.1,7.4,16.5,16.5,16.5c0,0,0,0,0,0c2.7,0,5.4-0.7,7.8-2v-7.5
		C530.9,94.7,530.6,92.9,529.9,91.2"/>
	<g>
		<defs>
			<path id="SVGID_3_" d="M331.6,117.7c-2.1-0.9-4.1-2.2-5.7-3.9c-1.7-1.7-3-3.7-3.9-5.8c-0.9-2.2-1.4-4.6-1.4-7.1
				c0-2.4,0.5-4.9,1.4-7.1c0.9-2.2,2.2-4.2,3.9-5.8c5.1-5.2,12.8-6.8,19.5-3.9c2.1,0.9,4.1,2.2,5.7,3.9c5.1,5.4,6.5,13.2,3.8,20
				c-0.9,2.2-2.2,4.1-3.8,5.8c-1.6,1.6-3.6,3-5.7,3.9c-2.2,1-4.5,1.5-6.9,1.4C336.1,119.1,333.8,118.6,331.6,117.7 M329.2,78.3
				c-2.8,1.2-5.4,3-7.6,5.2c-6.9,7.1-9,17.7-5.2,26.9c1.2,2.9,3,5.5,5.2,7.8c2.2,2.2,4.7,4,7.6,5.2c5.9,2.5,12.6,2.5,18.6,0
				c2.8-1.2,5.4-3,7.6-5.2c2.2-2.2,4-4.9,5.2-7.8c2.5-6.1,2.5-12.9,0-19c-1.2-2.9-3-5.6-5.2-7.8c-2.2-2.2-4.7-4-7.6-5.2
				C341.8,75.8,335.1,75.8,329.2,78.3"/>
		</defs>
		<clipPath id="SVGID_4_">
			<use xlink:href="#SVGID_3_"  style="overflow:visible;"/>
		</clipPath>
		<g id="Group_439" class="st6">
			
				<linearGradient id="Rectangle_75_1_" gradientUnits="userSpaceOnUse" x1="-166.6533" y1="460.2466" x2="-166.6412" y2="460.2466" gradientTransform="matrix(63 0 0 -64.56 10750.5 29814.3984)">
				<stop  offset="0" style="stop-color:#0E294D"/>
				<stop  offset="1" style="stop-color:#204F9C"/>
			</linearGradient>
			<rect id="Rectangle_75" x="314.6" y="76.4" class="st7" width="47.8" height="49"/>
		</g>
	</g>
	<g>
		<defs>
			<path id="SVGID_5_" d="M383.7,117.8c-6.7-2.9-11-9.5-10.9-16.8c0-2.4,0.5-4.9,1.4-7.1c1.8-4.3,5.3-7.8,9.6-9.7
				c2.2-1,4.5-1.5,6.9-1.4c2.4,0,4.7,0.5,6.9,1.4c2.1,0.9,4.1,2.3,5.7,3.9c1.6,1.7,2.9,3.6,3.8,5.8c0.9,2.3,1.4,4.7,1.4,7.1
				c0,2.4-0.4,4.8-1.4,7.1c-0.9,2.2-2.2,4.1-3.8,5.8c-1.6,1.6-3.6,3-5.7,3.9c-2.2,0.9-4.5,1.4-6.9,1.4
				C388.2,119.2,385.9,118.7,383.7,117.8 M381.3,78.4c-2.8,1.2-5.4,3-7.6,5.2c-2.2,2.3-3.9,4.9-5.2,7.8c-1.2,3-1.8,6.3-1.8,9.6v40.1
				h6.1V116c1.9,2.9,4.5,5.3,7.7,6.8c3.1,1.7,6.6,2.7,10.2,2.7c3.2,0,6.3-0.7,9.3-2c2.8-1.2,5.4-3,7.6-5.2c2.2-2.2,4-4.9,5.2-7.8
				c2.5-6.1,2.5-12.9,0-19c-1.2-2.9-3-5.6-5.2-7.8c-2.2-2.2-4.7-4-7.6-5.2C393.9,75.8,387.2,75.8,381.3,78.4"/>
		</defs>
		<clipPath id="SVGID_6_">
			<use xlink:href="#SVGID_5_"  style="overflow:visible;"/>
		</clipPath>
		<g id="Group_440" class="st8">
			
				<linearGradient id="Rectangle_76_1_" gradientUnits="userSpaceOnUse" x1="-167.7525" y1="461.3084" x2="-167.7404" y2="461.3084" gradientTransform="matrix(63 0 0 -85.25 10819.2002 39435.3516)">
				<stop  offset="0" style="stop-color:#0E294D"/>
				<stop  offset="1" style="stop-color:#204F9C"/>
			</linearGradient>
			<rect id="Rectangle_76" x="366.7" y="76.5" class="st9" width="47.8" height="64.7"/>
		</g>
	</g>
	<g>
		<defs>
			<path id="SVGID_7_" d="M429.4,87.9c6.8-7,18-7,25-0.2c0.1,0.1,0.1,0.1,0.2,0.2c1.3,1.4,2.5,3.1,3.3,4.9H426
				C426.9,91,428.1,89.4,429.4,87.9 M432.8,78.3c-2.9,1.2-5.5,3-7.7,5.2c-2.2,2.3-3.9,4.9-5.1,7.8c-2.5,6.1-2.5,12.9,0,19
				c1.2,2.9,2.9,5.5,5.1,7.8c2.2,2.2,4.8,4,7.7,5.2c5.9,2.5,12.6,2.5,18.6,0c2.8-1.3,5.4-3,7.6-5.2c2.2-2.3,3.9-4.9,5.1-7.8l0.2-0.7
				h-6.7c-0.8,1.5-1.8,2.9-3,4.1c-6.8,7-18,7-25,0.2c-0.1-0.1-0.1-0.1-0.2-0.2c-1.6-1.7-2.9-3.7-3.8-5.8c-1.3-2.8-1.7-5.9-1.3-9
				h41.5c-0.1-2.6-0.8-5.2-1.8-7.7c-1.2-2.9-2.9-5.6-5.1-7.8c-2.2-2.2-4.8-4-7.6-5.2C445.4,75.8,438.7,75.8,432.8,78.3"/>
		</defs>
		<clipPath id="SVGID_8_">
			<use xlink:href="#SVGID_7_"  style="overflow:visible;"/>
		</clipPath>
		<g id="Group_441" class="st10">
			
				<linearGradient id="Rectangle_77_1_" gradientUnits="userSpaceOnUse" x1="-168.8147" y1="460.2466" x2="-168.8026" y2="460.2466" gradientTransform="matrix(62.9 0 0 -64.56 10869.7998 29814.3984)">
				<stop  offset="0" style="stop-color:#0E294D"/>
				<stop  offset="1" style="stop-color:#204F9C"/>
			</linearGradient>
			<rect id="Rectangle_77" x="418.1" y="76.4" class="st11" width="47.7" height="49"/>
		</g>
	</g>
	<g>
		<defs>
			<path id="SVGID_9_" d="M485,80.4c-2.9,1.3-5.5,3.1-7.7,5.3c-0.4,0.4-0.7,0.9-0.9,1.4v-8.5h-6v44.5h6V103c0-2.4,0.5-4.9,1.4-7.1
				c0.9-2.2,2.2-4.1,3.9-5.8c1.6-1.7,3.5-3,5.7-3.9c2.2-1,4.5-1.5,6.9-1.4v-6.2C491,78.5,487.8,79.1,485,80.4"/>
		</defs>
		<clipPath id="SVGID_10_">
			<use xlink:href="#SVGID_9_"  style="overflow:visible;"/>
		</clipPath>
		<g id="Group_442" class="st12">
			
				<linearGradient id="Rectangle_78_1_" gradientUnits="userSpaceOnUse" x1="-167.8199" y1="459.8401" x2="-167.7957" y2="459.8401" gradientTransform="matrix(31.5 0 0 -58.93 5537.8999 27199.25)">
				<stop  offset="0" style="stop-color:#0E294D"/>
				<stop  offset="1" style="stop-color:#204F9C"/>
			</linearGradient>
			<rect id="Rectangle_78" x="470.4" y="78.5" class="st13" width="23.9" height="44.7"/>
		</g>
	</g>
	<g>
		<defs>
			<path id="SVGID_11_" d="M513.6,76.9c-1.3,0.3-2.6,0.7-3.8,1.3c-1.2,0.5-2.3,1.2-3.3,2c-0.9,0.7-1.7,1.6-2.4,2.6v-4.1h-6.1v44.5
				h6.1V96.5c0-1.8,0.4-3.5,1.1-5.1c0.7-1.6,1.7-3.1,2.9-4.4c1.2-1.3,2.7-2.3,4.2-3c1.6-0.8,3.4-1.2,5.2-1.2c1.7,0,3.5,0.4,5.1,1.1
				c5,2.2,8.2,7.2,8.2,12.7v26.7h6.3l-0.2-26.7c0-2.7-0.5-5.3-1.5-7.8c-1-2.4-2.5-4.5-4.2-6.4c-1.8-1.8-3.9-3.3-6.2-4.3
				c-2.4-1.1-4.9-1.6-7.5-1.6C516.3,76.4,515,76.5,513.6,76.9"/>
		</defs>
		<clipPath id="SVGID_12_">
			<use xlink:href="#SVGID_11_"  style="overflow:visible;"/>
		</clipPath>
		<g id="Group_443" class="st14">
			
				<linearGradient id="Rectangle_79_1_" gradientUnits="userSpaceOnUse" x1="-170.1564" y1="460.0468" x2="-170.1412" y2="460.0468" gradientTransform="matrix(51.5 0 0 -61.74 9014.5 28503.1016)">
				<stop  offset="0" style="stop-color:#0E294D"/>
				<stop  offset="1" style="stop-color:#204F9C"/>
			</linearGradient>
			<rect id="Rectangle_79" x="498.2" y="76.4" class="st15" width="39.1" height="46.8"/>
		</g>
	</g>
	<g>
		<defs>
			<path id="SVGID_13_" d="M543.4,123.2h6.1V78.7h-6.1V123.2z M544,62c-1.5,1.4-1.5,3.8-0.1,5.3c0.7,0.7,1.7,1.1,2.7,1.1
				c1,0,1.9-0.4,2.6-1.1c1.4-1.5,1.4-3.8,0-5.3c-0.7-0.7-1.6-1.1-2.6-1.1C545.6,60.9,544.7,61.3,544,62"/>
		</defs>
		<clipPath id="SVGID_14_">
			<use xlink:href="#SVGID_13_"  style="overflow:visible;"/>
		</clipPath>
		<g id="Group_444" class="st16">
			
				<linearGradient id="Rectangle_80_1_" gradientUnits="userSpaceOnUse" x1="-168.3173" y1="461.1241" x2="-168.2384" y2="461.1241" gradientTransform="matrix(9.6 0 0 -82.17 1866.7001 37982.6484)">
				<stop  offset="0" style="stop-color:#0E294D"/>
				<stop  offset="1" style="stop-color:#204F9C"/>
			</linearGradient>
			<rect id="Rectangle_80" x="542.9" y="60.9" class="st17" width="7.3" height="62.3"/>
		</g>
	</g>
	<g>
		<defs>
			<path id="SVGID_15_" d="M568.9,78.3c-2.8,1.3-5.4,3-7.6,5.2c-6.9,7.1-9,17.7-5.2,26.9c1.2,2.9,3,5.5,5.2,7.8
				c2.2,2.2,4.8,4,7.6,5.2c12,5.1,25.9-0.4,31-12.4c0.1-0.2,0.2-0.4,0.3-0.6l0.3-0.7h-6.7c-0.8,1.5-1.8,2.9-3,4.1
				c-1.6,1.6-3.6,3-5.7,3.9c-2.2,1-4.5,1.5-6.9,1.4c-7.2-0.1-13.7-4.5-16.5-11.1c-0.9-2.2-1.4-4.6-1.4-7.1c0-2.4,0.5-4.9,1.4-7.1
				c0.9-2.2,2.2-4.2,3.9-5.8c5.1-5.2,12.8-6.8,19.5-3.9c2.1,0.9,4.1,2.2,5.7,3.9c1.1,1.2,2.1,2.6,2.9,4h6.8l-0.3-0.6
				c-4.8-12.1-18.5-18.1-30.6-13.3C569.4,78.1,569.1,78.2,568.9,78.3"/>
		</defs>
		<clipPath id="SVGID_16_">
			<use xlink:href="#SVGID_15_"  style="overflow:visible;"/>
		</clipPath>
		<g id="Group_445" class="st18">
			
				<linearGradient id="Rectangle_81_1_" gradientUnits="userSpaceOnUse" x1="-171.6589" y1="460.2466" x2="-171.646" y2="460.2466" gradientTransform="matrix(60.8 0 0 -64.56 10688.2002 29814.3984)">
				<stop  offset="0" style="stop-color:#0E294D"/>
				<stop  offset="1" style="stop-color:#204F9C"/>
			</linearGradient>
			<rect id="Rectangle_81" x="554.4" y="76.4" class="st19" width="46.1" height="49"/>
		</g>
	</g>
	<g>
		<defs>
			<path id="SVGID_17_" d="M637.1,78.7v24.5c0,1.8-0.4,3.6-1.1,5.3c-0.7,1.6-1.6,3.1-2.9,4.3c-1.2,1.2-2.7,2.2-4.2,3
				c-3.3,1.4-7.1,1.4-10.4,0c-1.6-0.7-3-1.7-4.2-3c-1.3-1.2-2.2-2.7-2.9-4.3c-0.7-1.7-1.1-3.5-1.1-5.3l0,0V78.7h-6.3v24.4l0,0
				c0,2.7,0.5,5.3,1.6,7.7c1,2.4,2.4,4.5,4.2,6.4c1.8,1.8,3.9,3.3,6.2,4.3c2.4,1.1,4.9,1.6,7.5,1.6c2.6,0,5.2-0.5,7.6-1.6
				c2.3-1,4.4-2.5,6.2-4.3c1.8-1.9,3.2-4,4.2-6.4c1-2.5,1.5-5.1,1.5-7.7V78.7H637.1z"/>
		</defs>
		<clipPath id="SVGID_18_">
			<use xlink:href="#SVGID_17_"  style="overflow:visible;"/>
		</clipPath>
		<g id="Group_446" class="st20">
			
				<linearGradient id="Rectangle_82_1_" gradientUnits="userSpaceOnUse" x1="-172.8643" y1="459.8214" x2="-172.8499" y2="459.8214" gradientTransform="matrix(51.5 0 0 -58.69 9154.0996 27087.8496)">
				<stop  offset="0" style="stop-color:#0E294D"/>
				<stop  offset="1" style="stop-color:#204F9C"/>
			</linearGradient>
			<rect id="Rectangle_82" x="604.1" y="78.7" class="st21" width="39.1" height="44.5"/>
		</g>
	</g>
	<g>
		<defs>
			<path id="SVGID_19_" d="M657.7,77.6c-1.8,0.7-3.5,1.8-4.9,3.1c-1.4,1.2-2.4,2.7-3.2,4.4c-0.8,1.7-1,3.6-0.8,5.4
				c0.2,2.3,1.1,4.4,2.5,6.2c1.3,1.6,3,2.9,4.9,3.7c2,0.9,4.1,1.6,6.3,2.1c1.9,0.5,3.8,1.2,5.6,2c1.4,0.6,2.5,1.5,3.4,2.7
				c0.8,1.1,1.1,2.7,1.1,4.7c-0.1,1.9-1,3.7-2.4,5.1c-1.4,1.4-3.5,2-6.4,2c-2.2,0.1-4.3-0.4-6.2-1.5c-1.4-0.9-2.5-2.1-3.3-3.6
				c-0.6-1.3-0.9-2.8-0.9-4.2h-6.1c-0.1,2.3,0.4,4.5,1.3,6.6c0.9,1.8,2.1,3.5,3.6,4.9c1.5,1.3,3.3,2.4,5.2,3.1c1.9,0.7,3.9,1,6,1.1
				c2,0,4-0.3,5.9-0.8c1.8-0.6,3.4-1.5,4.9-2.6c1.4-1.1,2.6-2.6,3.4-4.2c0.9-1.7,1.3-3.7,1.2-5.6c0.1-2.4-0.4-4.8-1.5-6.9
				c-1.1-1.9-2.6-3.5-4.4-4.6c-1.9-1.2-3.9-2.2-6.1-2.9l-5.8-2c-1.5-0.5-2.9-1.2-4.2-2.1c-1.1-0.8-1.8-2-2-3.3
				c-0.3-1.6,0.2-3.3,1.2-4.6c1-1.3,2.2-2.3,3.7-2.9c1.2-0.4,2.4-0.7,3.7-0.7c1.7,0,3.3,0.5,4.8,1.4c1.4,0.9,2.5,2.3,3,3.9h6.5
				c-0.2-1.1-0.6-2.2-1.1-3.2c-0.8-1.3-1.7-2.6-2.7-3.7c-1.2-1.3-2.7-2.3-4.3-3c-1.9-0.8-4-1.2-6.1-1.1
				C661.5,76.4,659.5,76.8,657.7,77.6"/>
		</defs>
		<clipPath id="SVGID_20_">
			<use xlink:href="#SVGID_19_"  style="overflow:visible;"/>
		</clipPath>
		<g id="Group_447" class="st22">
			
				<linearGradient id="Rectangle_83_1_" gradientUnits="userSpaceOnUse" x1="-174.445" y1="460.2466" x2="-174.4268" y2="460.2466" gradientTransform="matrix(41.7 0 0 -64.56 7525.7002 29814.3984)">
				<stop  offset="0" style="stop-color:#0E294D"/>
				<stop  offset="1" style="stop-color:#204F9C"/>
			</linearGradient>
			<rect id="Rectangle_83" x="647.4" y="76.4" class="st23" width="31.6" height="49"/>
		</g>
	</g>
	<path id="Path_363" class="st24" d="M438.6,144.9h-7.1v6.7h8v2h-10.4v-18.4h9.9v2h-7.5v5.8h7.1V144.9z"/>
	<path id="Path_364" class="st24" d="M453.3,149.9c0,1.4,0,2.6,0.1,3.6h-2.1l-0.2-2.2l0,0c-0.9,1.6-2.6,2.5-4.4,2.5
		c-2,0-4.6-1.2-4.6-5.8v-7.7h2.4v7.3c0,2.5,0.8,4.2,2.9,4.2c1.4,0,2.7-0.9,3.2-2.3c0.2-0.4,0.2-0.8,0.2-1.2v-8h2.4L453.3,149.9z"/>
	<path id="Path_365" class="st24" d="M457.3,144.4c0-1.6,0-2.9-0.1-4.1h2.1v2.6h0.1c0.5-1.7,2-2.8,3.7-2.9h0.6v2.3H463
		c-1.7,0-3,1.2-3.3,3c-0.1,0.4-0.1,0.8-0.1,1.1v7.1h-2.4L457.3,144.4z"/>
	<path id="Path_366" class="st24" d="M477.9,146.8c0,4.9-3.4,7.1-6.6,7.1s-6.3-2.7-6.3-6.8c0-4.2,2.9-7,6.5-7
		C475.2,140,477.9,142.8,477.9,146.8z M467.4,146.9c0,2.9,1.7,5.1,4,5.1s4-2.1,4-5.2s-1.1-5-4-5S467.4,144.4,467.4,146.9z"/>
	<path id="Path_367" class="st24" d="M480.9,144.7c0-1.7-0.1-3.1-0.1-4.3h2.1v2.3h0.1c1-1.7,2.8-2.7,4.7-2.6c3.3,0,5.6,2.7,5.6,6.7
		s-2.9,7.1-6,7.1c-1.6,0.1-3.2-0.7-4.1-2.1h-0.1v7.2h-2.4L480.9,144.7z M483.3,148.2c0,0.3,0.1,0.7,0.2,1c0.4,1.6,1.9,2.8,3.6,2.8
		c2.6,0,4-2,4-5.1s-1.4-4.9-3.9-4.9c-1.7,0.1-3.2,1.3-3.6,3c-0.1,0.3-0.1,0.7-0.2,1V148.2z"/>
	<path id="Path_368" class="st24" d="M497.9,147.4c0,3.2,2,4.6,4.5,4.6c1.2,0,2.5-0.2,3.6-0.7l0.5,1.7c-1.4,0.6-2.9,0.9-4.4,0.8
		c-4.1,0-6.5-2.7-6.5-6.7s2.4-7.1,6.2-7.1s5.5,3.8,5.5,6.2c0,0.4,0,0.8-0.1,1.1L497.9,147.4z M504.8,145.6c0.1-1.5-0.6-3.9-3.3-3.9
		c-2.7,0-3.5,2.2-3.6,3.9H504.8z"/>
	<path id="Path_369" class="st24" d="M512.5,134.7c-0.6,2.2-1.5,4.4-2.6,6.4l-1.5,0.2c0.7-2.1,1.2-4.3,1.6-6.4L512.5,134.7z"/>
	<path id="Path_370" class="st24" d="M512.9,151.1c1,0.6,2.1,0.9,3.2,0.9c1.7,0,2.5-0.8,2.5-2c0-1.1-0.7-1.7-2.4-2.4
		c-1.7-0.7-3.5-2.1-3.5-3.7c0-1.6,1.7-3.9,4.6-3.9c1.1,0,2.2,0.3,3.2,0.8l-0.5,1.7c-0.8-0.5-1.8-0.8-2.7-0.8c-1.4,0-2.2,0.8-2.2,1.8
		s0.8,1.6,2.5,2.3c1.7,0.7,3.5,2,3.5,3.9s-1.8,4-4.9,4c-1.3,0-2.6-0.3-3.7-0.9L512.9,151.1z"/>
	<path id="Path_371" class="st24" d="M531.1,147.4c0.1,3.2,2.1,4.6,4.6,4.6c1.2,0,2.5-0.2,3.6-0.7l0.5,1.7c-1.4,0.6-2.9,0.9-4.4,0.8
		c-4.1,0-6.5-2.7-6.5-6.7s2.4-7.1,6.2-7.1c3.9,0,5.5,3.8,5.5,6.2c0,0.5-0.1,0.8-0.1,1.1L531.1,147.4z M538.1,145.6
		c0.1-1.5-0.6-3.9-3.3-3.9s-3.5,2.2-3.6,3.9H538.1z"/>
	<path id="Path_372" class="st24" d="M544.4,140.3l2.8,7.8c0.4,0.9,0.7,1.8,0.9,2.7h0.1c0.2-0.9,0.5-1.8,0.8-2.7l2.6-7.7h2.6
		l-3.6,9.4c-1.7,4.6-2.9,6.8-4.5,8.3c-0.8,0.7-1.9,1.3-3,1.5l-0.6-2c0.8-0.3,1.4-0.7,2-1.2c0.9-0.7,1.6-1.6,2-2.7
		c0.1-0.2,0.2-0.4,0.2-0.6c0-0.2-0.1-0.4-0.2-0.6l-4.9-12.1L544.4,140.3z"/>
	<path id="Path_373" class="st24" d="M557.4,147.4c0,3.2,2,4.6,4.5,4.6c1.3,0,2.5-0.2,3.7-0.7l0.4,1.7c-1.4,0.6-2.9,0.9-4.4,0.8
		c-4.1,0-6.5-2.7-6.5-6.7s2.4-7.1,6.2-7.1s5.5,3.8,5.5,6.2c0,0.4,0,0.8-0.1,1.1L557.4,147.4z M564.5,145.6c0-1.5-0.7-3.9-3.3-3.9
		c-2.7,0-3.5,2.2-3.7,3.9H564.5z"/>
	<path id="Path_374" class="st24" d="M569.4,151.1c1,0.6,2.1,0.9,3.2,0.9c1.7,0,2.6-0.8,2.6-2c0-1.1-0.7-1.7-2.4-2.4
		s-3.6-2.1-3.6-3.7c0-1.6,1.7-3.9,4.6-3.9c1.1,0,2.3,0.3,3.3,0.8l-0.6,1.7c-0.8-0.5-1.7-0.8-2.7-0.8c-1.4,0-2.2,0.8-2.2,1.8
		s0.8,1.6,2.5,2.3c1.7,0.7,3.4,2,3.4,3.9s-1.8,4-4.9,4c-1.3,0-2.6-0.3-3.7-0.9L569.4,151.1z"/>
	<path id="Path_375" class="st24" d="M598.3,146.8c0,4.9-3.4,7.1-6.6,7.1c-3.2,0-6.3-2.7-6.3-6.8c0-4.2,2.9-7,6.5-7
		S598.3,142.8,598.3,146.8z M587.8,146.9c0,2.9,1.7,5.1,4,5.1s4-2.1,4-5.2s-1.1-5-4-5C589,141.9,587.8,144.4,587.8,146.9z"/>
	<path id="Path_376" class="st24" d="M601.3,143.9c0-1.2,0-2.4-0.2-3.6h2.2v2.1h0.1c0.9-1.5,2.6-2.5,4.4-2.4c1.8,0,4.6,1.1,4.6,5.6
		v7.9h-2.4v-7.7c0-2.1-0.8-3.9-3.1-3.9c-1.5,0-2.8,1-3.2,2.4c-0.1,0.4-0.2,0.8-0.2,1.1v8h-2.4L601.3,143.9z"/>
	<path id="Path_377" class="st24" d="M631.8,144.9h-7.1v6.7h8v2h-10.4v-18.4h9.9v2h-7.6v5.8h7.1V144.9z"/>
	<path id="Path_378" class="st24" d="M645,150.4c0,1.1,0,2.1,0.2,3.2H643l-0.2-1.7h-0.1c-0.9,1.3-2.4,2-4,2c-2.7,0-4.1-1.9-4.1-3.8
		c0-3.2,2.9-4.9,8-4.9v-0.3c0-1.1-0.3-3-3-3c-1.2,0-2.4,0.3-3.5,1l-0.5-1.6c1.3-0.8,2.8-1.2,4.3-1.1c4.1,0,5.1,2.7,5.1,5.4V150.4z
		 M642.7,146.8c-2.7-0.1-5.6,0.4-5.6,3c-0.1,1.2,0.8,2.2,2,2.3c0.1,0,0.2,0,0.3,0c1.4,0.1,2.7-0.8,3.2-2.2c0.1-0.2,0.2-0.5,0.2-0.8
		V146.8z"/>
	<path id="Path_379" class="st24" d="M648.9,144.4c0-1.6-0.1-2.9-0.2-4.1h2.1v2.6h0.1c0.5-1.6,2-2.8,3.7-2.9h0.7v2.3h-0.8
		c-1.7,0-2.9,1.2-3.3,3c0,0.4-0.1,0.8-0.1,1.1v7.1h-2.4L648.9,144.4z"/>
	<path id="Path_380" class="st24" d="M661.3,137.2v3.2h3.5v1.8h-3.5v7.1c0,1.6,0.5,2.6,1.8,2.6c0.5,0,0.9,0,1.4-0.2l0.2,1.9
		c-0.7,0.2-1.4,0.3-2.1,0.3c-1,0-1.9-0.3-2.7-1c-0.7-1-1-2.3-0.9-3.5v-7.2h-2v-1.8h2v-2.5L661.3,137.2z"/>
	<path id="Path_381" class="st24" d="M667.5,134.1h2.4v8.3h0.1c0.4-0.7,1-1.3,1.7-1.7c0.8-0.5,1.6-0.7,2.5-0.7
		c1.7,0,4.6,1.1,4.6,5.6v7.9h-2.4V146c0-2.1-0.8-3.9-3.1-3.9c-1.5,0.1-2.7,1-3.2,2.4c-0.1,0.4-0.2,0.8-0.2,1.1v8h-2.4V134.1z"/>
</g>
</svg>
